HIERARCHY
ROOT Hips
{
	OFFSET -3.958830 18.904000 13.208200
	CHANNELS 6 Xposition Yposition Zposition Zrotation Yrotation Xrotation 
	JOINT LHipJoint
	{
		OFFSET 0.000000 0.000000 0.000000
		CHANNELS 3 Zrotation Yrotation Xrotation
		JOINT LeftUpLeg
		{
			OFFSET 1.800000 -1.400000 0.085000
			CHANNELS 3 Zrotation Yrotation Xrotation
			JOINT LeftLeg
			{
				OFFSET 2.215000 -6.000000 0.000000
				CHANNELS 3 Zrotation Yrotation Xrotation
				JOINT LeftFoot
				{
					OFFSET 2.500000 -6.900000 0.000000
					CHANNELS 3 Zrotation Yrotation Xrotation
					JOINT LeftToeBase
					{
						OFFSET 0.200000 -0.500000 1.950000
						CHANNELS 3 Zrotation Yrotation Xrotation
						End Site
						{
							OFFSET 0.000000 0.000000 0.000000
						}
					}
				}
			}
		}
	}
	JOINT RHipJoint
	{
		OFFSET 0.000000 0.000000 0.000000
		CHANNELS 3 Zrotation Yrotation Xrotation
		JOINT RightUpLeg
		{
			OFFSET -1.800000 -1.400000 0.085000
			CHANNELS 3 Zrotation Yrotation Xrotation
			JOINT RightLeg
			{
				OFFSET -2.215000 -6.000000 0.000000
				CHANNELS 3 Zrotation Yrotation Xrotation
				JOINT RightFoot
				{
					OFFSET -2.500000 -6.900000 0.000000
					CHANNELS 3 Zrotation Yrotation Xrotation
					JOINT RightToeBase
					{
						OFFSET -0.200000 -0.500000 1.950000
						CHANNELS 3 Zrotation Yrotation Xrotation
						End Site
						{
							OFFSET 0.000000 0.000000 0.000000
						}
					}
				}
			}
		}
	}
	JOINT LowerBack
	{
		OFFSET 0.000000 0.000000 0.000000
		CHANNELS 3 Zrotation Yrotation Xrotation
		JOINT Spine
		{
			OFFSET -0.087000 1.940000 -0.288900
			CHANNELS 3 Zrotation Yrotation Xrotation
			JOINT Spine1
			{
				OFFSET 0.000000 1.950000 0.060000
				CHANNELS 3 Zrotation Yrotation Xrotation
				JOINT Neck
				{
					OFFSET 0.000000 0.000000 0.000000
					CHANNELS 3 Zrotation Yrotation Xrotation
					JOINT Neck1
					{
						OFFSET 0.000000 1.600000 0.340000
						CHANNELS 3 Zrotation Yrotation Xrotation
						JOINT Head
						{
							OFFSET 0.000000 1.667000 -0.240000
							CHANNELS 3 Zrotation Yrotation Xrotation
							End Site
							{
								OFFSET 0.000000 0.000000 0.000000
							}
						}
					}
				}
				JOINT LeftShoulder
				{
					OFFSET 0.000000 0.000000 0.000000
					CHANNELS 3 Zrotation Yrotation Xrotation
					JOINT LeftArm
					{
						OFFSET 2.700000 1.550000 -0.730000
						CHANNELS 3 Zrotation Yrotation Xrotation
						JOINT LeftForeArm
						{
							OFFSET 5.450000 0.000000 0.000000
							CHANNELS 3 Zrotation Yrotation Xrotation
							JOINT LeftHand
							{
								OFFSET 3.450000 0.000000 0.000000
								CHANNELS 3 Zrotation Yrotation Xrotation
								JOINT LeftHandIndex1
								{
									OFFSET 0.750000 0.000000 0.000000
									CHANNELS 3 Zrotation Yrotation Xrotation
									End Site
									{
										OFFSET 0.000000 0.000000 0.000000
									}
								}
							}
						}
					}
				}
				JOINT RightShoulder
				{
					OFFSET 0.000000 0.000000 0.000000
					CHANNELS 3 Zrotation Yrotation Xrotation
					JOINT RightArm
					{
						OFFSET -2.700000 1.550000 -0.730000
						CHANNELS 3 Zrotation Yrotation Xrotation
						JOINT RightForeArm
						{
							OFFSET -5.450000 0.000000 0.000000
							CHANNELS 3 Zrotation Yrotation Xrotation
							JOINT RightHand
							{
								OFFSET -3.450000 0.000000 0.000000
								CHANNELS 3 Zrotation Yrotation Xrotation
								JOINT RightHandIndex1
								{
									OFFSET -0.750000 0.000000 0.000000
									CHANNELS 3 Zrotation Yrotation Xrotation
									End Site
									{
										OFFSET 0.000000 0.000000 0.000000
									}
								}
							}
						}
					}
				}
			}
		}
	}
}
MOTION
Frames: 14
Frame Time: 0.016667
4.683320 16.352880 2.382050 1.117862 39.648020 6.232584 -15.026711 12.570068 3.289116 -0.171051 -2.245890 -15.405039 -5.098758 3.888074 7.631009 -0.009879 2.433504 3.703708 -0.184580 -0.395250 0.101280 18.058866 -12.595009 2.759657 -13.201059 1.507611 -14.520767 8.100214 -7.442758 22.390266 -0.136465 -4.301629 2.722298 -0.341730 -0.149530 0.138840 -4.875517 2.376959 -7.578707 18.240738 5.081518 5.571626 -3.299896 8.064444 -14.593125 -0.813633 9.542785 -12.829503 19.658765 -22.519587 16.303902 1.540310 -16.742510 -3.770250 -16.363489 1.342604 6.154911 -37.376726 32.875035 -11.741140 3.975069 -13.924814 -0.213324 -3.752785 2.914585 0.142510 -0.085760 0.069350 -0.156770 11.555313 -1.823201 6.350303 42.974036 -10.242668 -5.738917 1.521806 7.144219 0.151496 2.883950 -1.160391 0.050090 -0.214290 0.042370 -0.068970 
4.708280 16.356890 2.325520 0.592797 42.051159 4.678487 -15.157295 12.897473 3.301189 -0.137105 -2.146398 -15.132020 -4.539799 3.928254 8.299929 -0.024464 2.463531 3.682007 -0.119730 -0.319800 0.152860 17.926912 -12.297216 2.767787 -12.755225 1.802069 -15.810831 9.025260 -8.218926 25.336994 -0.215417 -4.512474 2.633947 -0.306910 -0.206010 0.125380 -4.620373 1.303428 -7.719666 19.276921 3.531155 7.019185 -3.519083 6.713638 -12.151388 0.428764 8.034058 -14.138890 16.271183 -21.312499 17.975584 1.122820 -15.191580 -8.129270 -21.215419 -4.612130 7.589839 -41.261964 27.515177 -10.607122 1.353766 -9.144037 -0.319803 -3.682339 2.881763 0.205480 -0.141680 0.118790 -0.150350 14.892302 5.139160 7.813126 40.836336 -7.704334 -4.344869 2.544473 5.805994 0.257230 2.879753 -1.139327 0.052330 -0.196730 0.009240 -0.091710 
4.705770 16.335690 2.245610 0.423638 44.319263 3.300143 -15.263529 13.138952 3.305596 -0.212995 -2.205114 -15.529061 -4.245592 4.127222 10.090617 -0.038942 2.531081 3.640625 -0.051920 -0.233250 0.188310 17.819171 -11.996141 2.865356 -12.810821 2.155255 -17.611345 10.567036 -9.054478 27.299910 -0.291275 -4.727661 2.539712 -0.260940 -0.247000 0.115950 -4.404020 0.425431 -7.874910 19.557966 1.963755 9.038572 -4.334138 5.430534 -9.780476 1.607701 7.167488 -15.368096 14.240088 -20.733232 19.347753 1.419220 -14.685340 -11.850970 -25.758097 -10.817951 8.820709 -43.032175 20.832390 -8.243014 -1.337211 -5.445039 -0.368763 -3.603243 2.927964 0.248880 -0.186780 0.160570 -0.136050 17.860524 11.924476 9.235665 39.114701 -3.996117 -2.846340 2.887440 5.282398 0.347561 2.862279 -1.129589 0.062000 -0.173870 -0.020120 -0.099240 
4.711100 16.310260 2.182670 -0.315366 46.064274 1.799514 -15.349950 13.330717 3.292337 0.138366 -2.221776 -15.777972 -3.978424 4.256918 11.323651 -0.061878 2.606638 3.596011 0.008220 -0.157130 0.226100 17.733020 -11.693548 3.026437 -12.576321 2.597479 -19.738629 12.266965 -9.762206 28.442831 -0.356887 -4.878184 2.464165 -0.214500 -0.282350 0.113100 -4.203081 -0.287979 -8.025265 19.532167 0.681746 10.870132 -5.471379 4.510643 -8.186761 2.680380 7.136642 -16.629562 13.820431 -20.602816 20.118534 1.685600 -14.401140 -14.725830 -29.960755 -15.999467 9.808188 -43.632084 15.218530 -6.303782 -2.457984 -6.243347 -0.346069 -3.502432 2.994800 0.284000 -0.218780 0.196940 -0.129370 20.295589 17.224013 10.338785 37.362504 -0.745746 -1.615820 3.168272 5.569542 0.418899 2.831518 -1.120231 0.068770 -0.155020 -0.041760 -0.109830 
4.713280 16.271140 2.146750 -0.575841 46.607061 0.794613 -15.412911 13.477474 3.311892 0.235464 -2.291080 -16.074532 -4.042790 4.473952 12.716911 -0.060061 2.704998 3.544014 0.052630 -0.100580 0.243050 17.668477 -11.460851 3.168348 -11.894374 3.023696 -21.955204 12.697135 -9.716480 28.725804 -0.368379 -4.770653 2.489782 -0.185360 -0.306970 0.107210 -3.993835 -0.826514 -8.170318 18.253060 -0.149043 12.630344 -5.584499 3.796706 -6.530041 3.182321 6.892182 -18.125755 12.922974 -20.020585 21.734193 2.565690 -14.360490 -16.574990 -32.061852 -20.880833 10.731502 -44.639800 9.415220 -4.529642 -3.615320 -6.935045 -0.288868 -3.417532 3.046049 0.311070 -0.250780 0.224640 -0.117900 21.754426 22.282826 11.296770 36.000288 3.022025 -0.448217 3.204253 5.797752 0.508255 2.817485 -1.105733 0.078540 -0.142450 -0.059530 -0.109200 
4.718780 16.223630 2.110060 -1.118567 46.685050 -0.356016 -15.467195 13.631571 3.323316 0.385562 -2.417810 -16.652528 -3.698249 4.625123 14.458160 -0.073249 2.810762 3.487560 0.106060 -0.029280 0.267780 17.615922 -11.223663 3.317913 -10.936430 3.598178 -24.410535 12.481382 -9.395175 29.074353 -0.366031 -4.599847 2.538627 -0.140390 -0.326200 0.107170 -3.792031 -1.360981 -8.295023 17.199204 -0.734060 14.538345 -5.970224 3.441670 -4.490942 3.793604 6.687837 -19.952613 12.125663 -19.292052 22.962474 2.496650 -13.779570 -18.110590 -33.814009 -25.774608 11.415344 -43.921717 3.147897 -2.301775 -4.547488 -6.952273 -0.186253 -3.359535 3.085609 0.327760 -0.267610 0.249950 -0.104400 22.635846 27.440970 12.292243 34.139804 6.931484 0.528060 3.051079 7.031265 0.571738 2.777783 -1.097758 0.087490 -0.125940 -0.078770 -0.110500 
4.721470 16.168270 2.076560 -0.966216 46.332931 -1.258923 -15.510605 13.764730 3.317711 -0.118132 -2.543825 -16.861721 -2.565978 4.606661 16.547317 -0.099922 2.903789 3.433245 0.167430 0.056590 0.306330 17.588460 -11.007613 3.458435 -10.136536 4.133454 -27.312378 11.377981 -8.971311 30.193794 -0.364499 -4.463534 2.572043 -0.081040 -0.350020 0.098870 -3.623953 -1.827888 -8.378642 15.609594 -1.429035 16.520892 -6.386871 2.863572 -1.897249 4.307230 6.531556 -21.828711 11.302203 -17.551363 24.299170 1.965050 -11.969800 -19.550790 -34.182893 -30.308553 12.089179 -41.785976 -3.147798 -0.593889 -5.229574 -8.628606 -0.043309 -3.303786 3.111882 0.346310 -0.280320 0.275980 -0.095200 22.283077 32.154208 12.897973 32.580780 11.750578 1.264042 2.066361 9.328107 0.589264 2.719710 -1.097495 0.088150 -0.104510 -0.101850 -0.122510 
4.720280 16.121530 2.038370 -1.072041 44.922620 -2.005730 -15.540875 13.890924 3.344090 -0.506164 -2.811259 -17.615497 -1.492470 4.653168 19.302808 -0.095009 3.090148 3.357582 0.194970 0.097470 0.301090 17.566704 -10.780206 3.627643 -8.909661 4.736580 -29.976273 10.193750 -8.153203 30.048678 -0.320556 -4.124870 2.700063 -0.052240 -0.342500 0.086080 -3.449519 -2.306865 -8.507721 14.177572 -2.022665 18.761117 -6.192189 2.538747 0.421268 4.402168 5.711334 -24.066857 9.395566 -16.504026 26.232178 2.268010 -11.761750 -20.054570 -33.310451 -34.212385 12.512361 -39.215441 -9.141850 0.593795 -5.674438 -10.794897 0.142306 -3.262255 3.107770 0.357120 -0.289070 0.282200 -0.075180 21.572762 36.807776 13.508670 29.789735 17.450167 2.171091 0.594182 9.486323 0.578286 2.720260 -1.050515 0.084500 -0.072180 -0.107950 -0.113880 
4.720690 16.071210 2.019100 -0.961609 43.202068 -2.533056 -15.570157 14.003874 3.382890 -0.703900 -3.061814 -18.216344 -0.850070 4.797574 21.794895 -0.071708 3.343833 3.267264 0.205260 0.109100 0.288950 17.548445 -10.550875 3.787152 -7.357217 5.328889 -32.359142 8.549801 -7.134651 29.618701 -0.260875 -3.708964 2.858752 -0.039470 -0.325190 0.068630 -3.263013 -2.800813 -8.647546 12.433962 -2.175809 20.689994 -4.924835 2.280108 3.074354 4.392571 3.826997 -26.475003 5.748810 -15.235088 28.044776 2.440720 -11.733160 -20.338210 -30.731717 -37.587532 12.332848 -36.494221 -16.061712 1.962601 -5.774583 -12.172075 0.352114 -3.253748 3.058313 0.365880 -0.300100 0.276670 -0.059590 19.913089 41.337208 14.638003 26.364998 22.810694 2.325653 -1.939803 10.029378 0.441285 2.733842 -1.004724 0.073850 -0.035800 -0.104210 -0.103370 
4.726150 16.018740 2.000690 -1.446354 41.217800 -3.233040 -15.600037 14.111221 3.422205 -0.469140 -3.376182 -19.123491 -0.289783 4.994381 24.512792 -0.024752 3.667850 3.147816 0.207810 0.113120 0.264650 17.525348 -10.285114 3.983783 -5.916642 6.054131 -34.280793 7.958267 -6.386440 28.571889 -0.203937 -3.345185 3.001856 -0.033470 -0.302750 0.063280 -3.059078 -3.324833 -8.814055 11.251582 -2.234292 22.589859 -3.573668 2.168451 5.574429 4.609983 2.000019 -29.254385 2.391874 -14.295321 29.349398 2.415610 -11.999500 -19.641920 -28.918093 -39.937113 12.117961 -33.224154 -22.045078 2.388278 -3.797496 -13.703117 0.351180 -3.256183 3.031433 0.352890 -0.297190 0.261570 -0.043650 18.723018 45.316451 16.246165 21.164198 28.837914 1.981907 -4.792007 9.221896 0.200966 2.825175 -0.944602 0.074890 -0.020600 -0.097880 -0.085500 
4.738330 15.979320 1.973780 -1.641231 38.918773 -3.914025 -15.614404 14.170872 3.466962 -0.204292 -3.737632 -19.647635 -0.296904 5.383930 27.296266 0.022734 4.083451 2.988228 0.219240 0.126280 0.267440 17.521819 -10.075313 4.113330 -4.669254 6.489470 -35.686320 7.483737 -5.687464 27.003509 -0.156322 -2.949224 3.145747 -0.020960 -0.302670 0.055320 -2.917100 -3.696979 -8.940893 9.884222 -2.368302 24.531800 -3.611937 2.248714 7.192925 4.961804 1.589012 -31.479266 1.027110 -13.191788 31.044005 2.560550 -11.521670 -19.293300 -26.273343 -41.732355 12.219391 -27.948835 -27.838217 2.609772 -1.813684 -13.851797 0.328713 -3.297707 2.944053 0.362690 -0.302340 0.263880 -0.039200 15.937283 48.414344 16.933423 15.993214 34.380543 1.392616 -6.515672 9.550070 0.050619 2.911454 -0.862196 0.068450 -0.009730 -0.098970 -0.087890 
4.758300 15.941870 1.943180 -1.763436 37.063033 -4.548540 -15.625009 14.166536 3.543213 0.106142 -4.248099 -20.027762 -1.141789 6.086360 30.174233 0.103004 4.610060 2.785563 0.226700 0.136630 0.272860 17.523103 -9.895183 4.199688 -4.099226 6.648240 -36.792862 7.929478 -5.282485 24.945177 -0.118340 -2.611760 3.264908 -0.016910 -0.310120 0.054150 -2.801415 -3.953287 -9.080082 8.663522 -2.542567 26.516885 -4.272165 2.480733 7.532693 5.503732 1.700561 -32.862021 0.448730 -12.181752 32.915591 2.712000 -10.898930 -19.034910 -23.707292 -43.197997 13.370860 -22.634644 -32.431202 1.175022 2.139792 -15.199319 -0.044220 -3.299500 2.933314 0.369850 -0.307270 0.271720 -0.040660 12.569625 51.715039 15.506265 11.315860 37.948655 0.513633 -7.336044 9.459012 -0.001095 3.135330 -0.784967 0.070850 -0.011300 -0.100320 -0.091500 
4.779490 15.906350 1.920290 -1.666618 34.899953 -5.281210 -15.638875 14.173559 3.634571 0.574660 -4.668429 -19.820064 -2.428593 6.884488 32.252154 0.184152 5.081433 2.605175 0.239170 0.151660 0.283690 17.496460 -9.844080 4.245579 -3.093427 6.567824 -37.462239 7.237287 -4.637996 23.068475 -0.076472 -2.223854 3.403489 -0.012970 -0.324820 0.048830 -2.660416 -4.067439 -9.308870 7.130760 -2.082848 28.901024 -4.616024 3.253732 6.286652 6.138464 1.705608 -33.634738 -0.357934 -11.562432 36.086464 2.676440 -10.773400 -18.893500 -20.549076 -45.366251 15.136338 -17.114863 -36.921518 -0.169296 6.723881 -13.870680 -0.637654 -3.323377 2.965995 0.379320 -0.320320 0.285600 -0.037260 8.944350 55.925138 11.496328 9.226975 38.891537 -1.388396 -6.810649 10.400530 0.082962 3.694182 -0.783693 0.075520 -0.009910 -0.110950 -0.092240 
4.794450 15.862880 1.900820 -1.348889 31.260758 -5.625537 -15.808882 14.764618 3.816782 1.452318 -4.993325 -20.071759 -4.178899 7.989548 33.763554 0.310873 5.654570 2.419384 0.221490 0.139150 0.262480 17.360670 -9.116975 4.194537 -1.799701 6.732613 -37.894232 6.480203 -3.925669 21.286889 -0.001740 -1.775551 3.573626 -0.024160 -0.310120 0.034630 -1.958926 -6.412840 -9.170335 1.260019 -5.482045 30.406639 -5.404554 -2.100332 13.154568 11.320985 2.286453 -38.467464 -5.947127 -9.793333 35.240747 2.620040 -10.546660 -17.837440 -9.374615 -34.561608 2.024018 -9.472314 -40.765179 -2.365398 11.098067 -11.809806 -1.231239 -3.702060 2.842137 0.369880 -0.315080 0.276930 -0.026750 -10.352005 40.353617 48.318622 -69.144570 37.105463 -175.339877 10.445928 7.275446 0.267212 2.319263 -3.647305 0.069480 -0.001590 -0.112850 -0.081750 
